# MagicaVoxel @ Ephtracy

# group
o 

# material
mtllib AK47Model.mtl
usemtl palette

# normals
vn -1 0 0
vn 1 0 0
vn 0 0 1
vn 0 0 -1
vn 0 -1 0
vn 0 1 0

# texcoords
vt 0.306641 0.5
vt 0.537109 0.5
vt 0.978516 0.5
vt 0.982422 0.5
vt 0.986328 0.5
vt 0.994141 0.5

# verts
v -1.3 0.8 0.1
v -1.3 0.8 0
v -1.3 0.9 0.2
v -1.3 0.9 0.1
v -1.3 0.9 0
v -1.3 0.9 -0.1
v -1.3 1 0.2
v -1.3 1 0.1
v -1.3 1 0
v -1.3 1 -0.1
v -1.3 1.1 0.1
v -1.3 1.1 0
v -1.1 1.1 0.1
v -1.1 1.1 0
v -1.1 1.2 0.1
v -1.1 1.2 0
v -0.5 1.1 0.1
v -0.5 1.1 0
v -0.5 1.2 0.1
v -0.5 1.2 0
v -0.1 0.8 0.2
v -0.1 0.8 0.1
v -0.1 0.8 0
v -0.1 0.8 -0.1
v -0.1 0.9 0.2
v -0.1 0.9 0.1
v -0.1 0.9 0
v -0.1 0.9 -0.1
v -0.1 1 0.2
v -0.1 1 0.1
v -0.1 1 0
v -0.1 1 -0.1
v -0.1 1.2 0.2
v -0.1 1.2 0.1
v -0.1 1.2 0
v -0.1 1.2 -0.1
v -1.19209e-07 0 0.1
v -1.19209e-07 0 0
v -1.19209e-07 0.2 0.1
v -1.19209e-07 0.2 0
v 0.0999999 0.2 0.1
v 0.0999999 0.2 0
v 0.0999999 0.3 0.1
v 0.0999999 0.3 0
v 0.2 0.3 0.1
v 0.2 0.3 0
v 0.2 0.4 0.1
v 0.2 0.4 0
v 0.3 0.4 0.1
v 0.3 0.4 0
v 0.3 0.5 0.1
v 0.3 0.5 0
v 0.4 0.5 0.1
v 0.4 0.5 0
v 0.4 0.6 0.1
v 0.4 0.6 0
v 0.5 0.6 0.1
v 0.5 0.6 0
v 0.5 0.8 0.1
v 0.5 0.8 0
v 0.8 0.7 0.1
v 0.8 0.7 0
v 0.8 0.8 0.1
v 0.8 0.8 0
v 1 0.3 0.1
v 1 0.3 0
v 1 0.6 0.1
v 1 0.6 0
v 1.1 0.3 0.2
v 1.1 0.3 0.1
v 1.1 0.3 0
v 1.1 0.3 -0.1
v 1.1 0.8 0.1
v 1.1 0.8 0
v 1.1 0.9 0.2
v 1.1 0.9 0.1
v 1.1 0.9 0
v 1.1 0.9 -0.1
v 1.6 0.8 0.2
v 1.6 0.8 -0.1
v 1.6 0.9 0.2
v 1.6 0.9 -0.1
v 1.7 0.7 0.2
v 1.7 0.7 -0.1
v 1.7 0.8 0.2
v 1.7 0.8 -0.1
v -1 1.1 0.1
v -1 1.1 0
v -1 1.2 0.1
v -1 1.2 0
v 0.2 0 0.1
v 0.2 0 0
v 0.2 0.1 0.1
v 0.2 0.1 0
v 0.3 0.1 0.1
v 0.3 0.1 0
v 0.3 0.2 0.1
v 0.3 0.2 0
v 0.4 0.2 0.1
v 0.4 0.2 0
v 0.4 0.3 0.1
v 0.4 0.3 0
v 0.5 0.3 0.1
v 0.5 0.3 0
v 0.5 0.4 0.1
v 0.5 0.4 0
v 0.5 1.1 0.2
v 0.5 1.1 -0.1
v 0.5 1.2 0.2
v 0.5 1.2 -0.1
v 0.6 0.4 0.1
v 0.6 0.4 0
v 0.6 0.5 0.1
v 0.6 0.5 0
v 0.7 0.5 0.1
v 0.7 0.5 0
v 0.7 0.6 0.1
v 0.7 0.6 0
v 0.7 0.7 0.1
v 0.7 0.7 0
v 0.7 0.8 0.2
v 0.7 0.8 0.1
v 0.7 0.8 0
v 0.7 0.8 -0.1
v 0.7 0.9 0.2
v 0.7 0.9 0.1
v 0.7 0.9 0
v 0.7 0.9 -0.1
v 1.2 0.3 0.2
v 1.2 0.3 -0.1
v 1.2 0.8 0.1
v 1.2 0.8 0
v 1.2 0.9 0.2
v 1.2 0.9 0.1
v 1.2 0.9 0
v 1.2 0.9 -0.1
v 1.5 0.8 0.1
v 1.5 0.8 0
v 1.5 0.9 0.1
v 1.5 0.9 0
v 1.7 1 0.2
v 1.7 1 -0.1
v 1.7 1.1 0.2
v 1.7 1.1 -0.1
v 2 0.7 0.2
v 2 0.7 -0.1
v 2 1 0.2
v 2 1 -0.1
v -1.3 0.9 0.2
v -1.3 1 0.2
v -0.1 0.8 0.2
v -0.1 0.9 0.2
v -0.1 1 0.2
v -0.1 1.2 0.2
v 0.3 1.1 0.2
v 0.3 1.2 0.2
v 0.5 0.8 0.2
v 0.5 1.1 0.2
v 0.5 1.2 0.2
v 0.7 0.8 0.2
v 0.7 0.9 0.2
v 1.1 0.3 0.2
v 1.1 0.9 0.2
v 1.2 0.3 0.2
v 1.2 0.9 0.2
v 1.3 0.9 0.2
v 1.3 1.1 0.2
v 1.6 0.8 0.2
v 1.6 0.9 0.2
v 1.7 0.7 0.2
v 1.7 0.8 0.2
v 1.7 1 0.2
v 1.7 1.1 0.2
v 2 0.7 0.2
v 2 1 0.2
v -1.3 0.8 0.1
v -1.3 0.9 0.1
v -1.3 1 0.1
v -1.3 1.1 0.1
v -1.1 1.1 0.1
v -1.1 1.2 0.1
v -1 1.1 0.1
v -1 1.2 0.1
v -0.5 1.1 0.1
v -0.5 1.2 0.1
v -0.1 0.8 0.1
v -0.1 0.9 0.1
v -0.1 1 0.1
v -0.1 1.2 0.1
v -1.19209e-07 0 0.1
v -1.19209e-07 0.2 0.1
v 0.0999999 0.2 0.1
v 0.0999999 0.3 0.1
v 0.2 0 0.1
v 0.2 0.1 0.1
v 0.2 0.3 0.1
v 0.2 0.4 0.1
v 0.3 0.1 0.1
v 0.3 0.2 0.1
v 0.3 0.4 0.1
v 0.3 0.5 0.1
v 0.4 0.2 0.1
v 0.4 0.3 0.1
v 0.4 0.5 0.1
v 0.4 0.6 0.1
v 0.5 0.3 0.1
v 0.5 0.4 0.1
v 0.5 0.6 0.1
v 0.5 0.8 0.1
v 0.6 0.4 0.1
v 0.6 0.5 0.1
v 0.7 0.5 0.1
v 0.7 0.6 0.1
v 0.7 0.7 0.1
v 0.7 0.8 0.1
v 0.7 0.9 0.1
v 0.8 0.7 0.1
v 0.8 0.8 0.1
v 0.9 0.7 0.1
v 0.9 0.8 0.1
v 1 0.3 0.1
v 1 0.6 0.1
v 1 0.8 0.1
v 1.1 0.3 0.1
v 1.1 0.8 0.1
v 1.1 0.9 0.1
v 1.2 0.8 0.1
v 1.2 0.9 0.1
v 1.3 0.9 0.1
v 1.5 0.8 0.1
v 1.5 0.9 0.1
v -1.3 0.8 0
v -1.3 0.9 0
v -1.3 1 0
v -1.3 1.1 0
v -1.1 1.1 0
v -1.1 1.2 0
v -1 1.1 0
v -1 1.2 0
v -0.5 1.1 0
v -0.5 1.2 0
v -0.1 0.8 0
v -0.1 0.9 0
v -0.1 1 0
v -0.1 1.2 0
v -1.19209e-07 0 0
v -1.19209e-07 0.2 0
v 0.0999999 0.2 0
v 0.0999999 0.3 0
v 0.2 0 0
v 0.2 0.1 0
v 0.2 0.3 0
v 0.2 0.4 0
v 0.3 0.1 0
v 0.3 0.2 0
v 0.3 0.4 0
v 0.3 0.5 0
v 0.4 0.2 0
v 0.4 0.3 0
v 0.4 0.5 0
v 0.4 0.6 0
v 0.5 0.3 0
v 0.5 0.4 0
v 0.5 0.6 0
v 0.5 0.8 0
v 0.6 0.4 0
v 0.6 0.5 0
v 0.7 0.5 0
v 0.7 0.6 0
v 0.7 0.7 0
v 0.7 0.8 0
v 0.7 0.9 0
v 0.8 0.7 0
v 0.8 0.8 0
v 0.9 0.7 0
v 0.9 0.8 0
v 1 0.3 0
v 1 0.6 0
v 1 0.8 0
v 1.1 0.3 0
v 1.1 0.8 0
v 1.1 0.9 0
v 1.2 0.8 0
v 1.2 0.9 0
v 1.3 0.9 0
v 1.5 0.8 0
v 1.5 0.9 0
v -1.3 0.9 -0.1
v -1.3 1 -0.1
v -0.1 0.8 -0.1
v -0.1 0.9 -0.1
v -0.1 1 -0.1
v -0.1 1.2 -0.1
v 0.3 1.1 -0.1
v 0.3 1.2 -0.1
v 0.5 0.8 -0.1
v 0.5 1.1 -0.1
v 0.5 1.2 -0.1
v 0.7 0.8 -0.1
v 0.7 0.9 -0.1
v 1.1 0.3 -0.1
v 1.1 0.9 -0.1
v 1.2 0.3 -0.1
v 1.2 0.9 -0.1
v 1.3 0.9 -0.1
v 1.3 1.1 -0.1
v 1.6 0.8 -0.1
v 1.6 0.9 -0.1
v 1.7 0.7 -0.1
v 1.7 0.8 -0.1
v 1.7 1 -0.1
v 1.7 1.1 -0.1
v 2 0.7 -0.1
v 2 1 -0.1
v -1.19209e-07 0 0.1
v 0.2 0 0.1
v -1.19209e-07 0 0
v 0.2 0 0
v 0.2 0.1 0.1
v 0.3 0.1 0.1
v 0.2 0.1 0
v 0.3 0.1 0
v 0.3 0.2 0.1
v 0.4 0.2 0.1
v 0.3 0.2 0
v 0.4 0.2 0
v 1.1 0.3 0.2
v 1.2 0.3 0.2
v 0.4 0.3 0.1
v 0.5 0.3 0.1
v 1 0.3 0.1
v 1.1 0.3 0.1
v 0.4 0.3 0
v 0.5 0.3 0
v 1 0.3 0
v 1.1 0.3 0
v 1.1 0.3 -0.1
v 1.2 0.3 -0.1
v 0.5 0.4 0.1
v 0.6 0.4 0.1
v 0.5 0.4 0
v 0.6 0.4 0
v 0.6 0.5 0.1
v 0.7 0.5 0.1
v 0.6 0.5 0
v 0.7 0.5 0
v 0.7 0.6 0.1
v 1 0.6 0.1
v 0.7 0.6 0
v 1 0.6 0
v 1.7 0.7 0.2
v 2 0.7 0.2
v 1.7 0.7 -0.1
v 2 0.7 -0.1
v -0.1 0.8 0.2
v 0.5 0.8 0.2
v 0.7 0.8 0.2
v 1.6 0.8 0.2
v 1.7 0.8 0.2
v -1.3 0.8 0.1
v -0.1 0.8 0.1
v 0.5 0.8 0.1
v 0.7 0.8 0.1
v 0.8 0.8 0.1
v 1.2 0.8 0.1
v 1.5 0.8 0.1
v -1.3 0.8 0
v -0.1 0.8 0
v 0.5 0.8 0
v 0.7 0.8 0
v 0.8 0.8 0
v 1.2 0.8 0
v 1.5 0.8 0
v -0.1 0.8 -0.1
v 0.5 0.8 -0.1
v 0.7 0.8 -0.1
v 1.6 0.8 -0.1
v 1.7 0.8 -0.1
v -1.3 0.9 0.2
v -0.1 0.9 0.2
v 0.7 0.9 0.2
v 1.1 0.9 0.2
v 1.2 0.9 0.2
v 1.3 0.9 0.2
v 1.6 0.9 0.2
v -1.3 0.9 0.1
v -0.1 0.9 0.1
v 0.7 0.9 0.1
v 1.1 0.9 0.1
v 1.2 0.9 0.1
v 1.3 0.9 0.1
v 1.5 0.9 0.1
v -1.3 0.9 0
v -0.1 0.9 0
v 0.7 0.9 0
v 1.1 0.9 0
v 1.2 0.9 0
v 1.3 0.9 0
v 1.5 0.9 0
v -1.3 0.9 -0.1
v -0.1 0.9 -0.1
v 0.7 0.9 -0.1
v 1.1 0.9 -0.1
v 1.2 0.9 -0.1
v 1.3 0.9 -0.1
v 1.6 0.9 -0.1
v -1.19209e-07 0.2 0.1
v 0.0999999 0.2 0.1
v -1.19209e-07 0.2 0
v 0.0999999 0.2 0
v 0.0999999 0.3 0.1
v 0.2 0.3 0.1
v 0.0999999 0.3 0
v 0.2 0.3 0
v 0.2 0.4 0.1
v 0.3 0.4 0.1
v 0.2 0.4 0
v 0.3 0.4 0
v 0.3 0.5 0.1
v 0.4 0.5 0.1
v 0.3 0.5 0
v 0.4 0.5 0
v 0.4 0.6 0.1
v 0.5 0.6 0.1
v 0.4 0.6 0
v 0.5 0.6 0
v 0.7 0.7 0.1
v 0.8 0.7 0.1
v 0.7 0.7 0
v 0.8 0.7 0
v -1.3 1 0.2
v -0.1 1 0.2
v 1.7 1 0.2
v 2 1 0.2
v -1.3 1 0.1
v -0.1 1 0.1
v -1.3 1 0
v -0.1 1 0
v -1.3 1 -0.1
v -0.1 1 -0.1
v 1.7 1 -0.1
v 2 1 -0.1
v 0.5 1.1 0.2
v 1.3 1.1 0.2
v 1.7 1.1 0.2
v -1.3 1.1 0.1
v -1.1 1.1 0.1
v -1 1.1 0.1
v -0.5 1.1 0.1
v -1.3 1.1 0
v -1.1 1.1 0
v -1 1.1 0
v -0.5 1.1 0
v 0.5 1.1 -0.1
v 1.3 1.1 -0.1
v 1.7 1.1 -0.1
v -0.1 1.2 0.2
v 0.3 1.2 0.2
v 0.5 1.2 0.2
v -1.1 1.2 0.1
v -1 1.2 0.1
v -0.5 1.2 0.1
v -0.1 1.2 0.1
v 0.3 1.2 0.1
v 0.4 1.2 0.1
v -1.1 1.2 0
v -1 1.2 0
v -0.5 1.2 0
v -0.1 1.2 0
v 0.3 1.2 0
v 0.4 1.2 0
v -0.1 1.2 -0.1
v 0.3 1.2 -0.1
v 0.5 1.2 -0.1

# faces
f 4/3/1 2/3/1 1/3/1
f 5/3/1 2/3/1 4/3/1
f 7/3/1 4/3/1 3/3/1
f 8/6/1 5/6/1 4/6/1
f 8/3/1 4/3/1 7/3/1
f 9/3/1 6/3/1 5/3/1
f 9/6/1 5/6/1 8/6/1
f 10/3/1 6/3/1 9/3/1
f 11/3/1 9/3/1 8/3/1
f 12/3/1 9/3/1 11/3/1
f 15/2/1 14/2/1 13/2/1
f 16/2/1 14/2/1 15/2/1
f 19/3/1 18/3/1 17/3/1
f 20/3/1 18/3/1 19/3/1
f 25/2/1 22/2/1 21/2/1
f 26/2/1 22/2/1 25/2/1
f 27/2/1 24/2/1 23/2/1
f 28/2/1 24/2/1 27/2/1
f 33/2/1 30/2/1 29/2/1
f 34/2/1 30/2/1 33/2/1
f 35/2/1 32/2/1 31/2/1
f 36/2/1 32/2/1 35/2/1
f 39/3/1 38/3/1 37/3/1
f 40/3/1 38/3/1 39/3/1
f 43/3/1 42/3/1 41/3/1
f 44/3/1 42/3/1 43/3/1
f 47/3/1 46/3/1 45/3/1
f 48/3/1 46/3/1 47/3/1
f 51/3/1 50/3/1 49/3/1
f 52/3/1 50/3/1 51/3/1
f 55/3/1 54/3/1 53/3/1
f 56/3/1 54/3/1 55/3/1
f 59/3/1 58/3/1 57/3/1
f 60/3/1 58/3/1 59/3/1
f 63/5/1 62/5/1 61/5/1
f 64/5/1 62/5/1 63/5/1
f 67/2/1 66/2/1 65/2/1
f 68/2/1 66/2/1 67/2/1
f 73/2/1 70/2/1 69/2/1
f 74/2/1 72/2/1 71/2/1
f 75/2/1 73/2/1 69/2/1
f 76/2/1 73/2/1 75/2/1
f 77/2/1 72/2/1 74/2/1
f 78/2/1 72/2/1 77/2/1
f 81/2/1 80/2/1 79/2/1
f 82/2/1 80/2/1 81/2/1
f 85/2/1 84/2/1 83/2/1
f 86/2/1 84/2/1 85/2/1
f 87/2/2 88/2/2 89/2/2
f 89/2/2 88/2/2 90/2/2
f 91/3/2 92/3/2 93/3/2
f 93/3/2 92/3/2 94/3/2
f 95/3/2 96/3/2 97/3/2
f 97/3/2 96/3/2 98/3/2
f 99/3/2 100/3/2 101/3/2
f 101/3/2 100/3/2 102/3/2
f 103/3/2 104/3/2 105/3/2
f 105/3/2 104/3/2 106/3/2
f 107/4/2 108/4/2 109/4/2
f 109/4/2 108/4/2 110/4/2
f 111/3/2 112/3/2 113/3/2
f 113/3/2 112/3/2 114/3/2
f 115/3/2 116/3/2 117/3/2
f 117/3/2 116/3/2 118/3/2
f 119/3/2 120/3/2 122/3/2
f 122/3/2 120/3/2 123/3/2
f 121/3/2 122/3/2 125/3/2
f 125/3/2 122/3/2 126/3/2
f 123/3/2 124/3/2 127/3/2
f 127/3/2 124/3/2 128/3/2
f 129/2/2 130/2/2 131/2/2
f 131/2/2 130/2/2 132/2/2
f 129/2/2 131/2/2 133/2/2
f 133/2/2 131/2/2 134/2/2
f 132/2/2 130/2/2 135/2/2
f 135/2/2 130/2/2 136/2/2
f 137/2/2 138/2/2 139/2/2
f 139/2/2 138/2/2 140/2/2
f 141/2/2 142/2/2 143/2/2
f 143/2/2 142/2/2 144/2/2
f 145/2/2 146/2/2 147/2/2
f 147/2/2 146/2/2 148/2/2
f 152/3/3 150/3/3 149/3/3
f 153/3/3 150/3/3 152/3/3
f 155/2/3 152/2/3 151/2/3
f 155/2/3 154/2/3 153/2/3
f 155/2/3 153/2/3 152/2/3
f 156/2/3 154/2/3 155/2/3
f 157/2/3 155/2/3 151/2/3
f 158/4/3 156/4/3 155/4/3
f 158/2/3 155/2/3 157/2/3
f 159/4/3 156/4/3 158/4/3
f 160/3/3 158/3/3 157/3/3
f 161/3/3 158/3/3 160/3/3
f 163/3/3 158/3/3 161/3/3
f 164/2/3 163/2/3 162/2/3
f 165/3/3 158/3/3 163/3/3
f 165/2/3 163/2/3 164/2/3
f 166/3/3 158/3/3 165/3/3
f 167/3/3 158/3/3 166/3/3
f 169/2/3 167/2/3 166/2/3
f 171/2/3 169/2/3 168/2/3
f 172/2/3 167/2/3 169/2/3
f 172/2/3 169/2/3 171/2/3
f 173/2/3 167/2/3 172/2/3
f 174/2/3 171/2/3 170/2/3
f 174/2/3 172/2/3 171/2/3
f 175/2/3 172/2/3 174/2/3
f 180/3/3 179/3/3 178/3/3
f 182/3/3 180/3/3 178/3/3
f 182/2/3 181/2/3 180/2/3
f 183/2/3 181/2/3 182/2/3
f 184/3/3 182/3/3 178/3/3
f 186/3/3 177/3/3 176/3/3
f 187/3/3 177/3/3 186/3/3
f 188/3/3 185/3/3 184/3/3
f 188/3/3 184/3/3 178/3/3
f 189/3/3 185/3/3 188/3/3
f 192/3/3 191/3/3 190/3/3
f 194/3/3 192/3/3 190/3/3
f 194/3/3 193/3/3 192/3/3
f 195/3/3 193/3/3 194/3/3
f 196/3/3 193/3/3 195/3/3
f 198/3/3 197/3/3 196/3/3
f 198/3/3 196/3/3 195/3/3
f 199/3/3 197/3/3 198/3/3
f 200/3/3 197/3/3 199/3/3
f 202/3/3 201/3/3 200/3/3
f 202/3/3 200/3/3 199/3/3
f 203/3/3 201/3/3 202/3/3
f 204/3/3 201/3/3 203/3/3
f 206/3/3 205/3/3 204/3/3
f 206/3/3 204/3/3 203/3/3
f 207/3/3 205/3/3 206/3/3
f 208/3/3 205/3/3 207/3/3
f 210/3/3 209/3/3 208/3/3
f 210/3/3 208/3/3 207/3/3
f 211/3/3 209/3/3 210/3/3
f 212/3/3 209/3/3 211/3/3
f 213/3/3 209/3/3 212/3/3
f 214/3/3 209/3/3 213/3/3
f 215/3/3 209/3/3 214/3/3
f 217/3/3 214/3/3 213/3/3
f 218/3/3 216/3/3 215/3/3
f 219/3/3 217/3/3 213/3/3
f 219/5/3 218/5/3 217/5/3
f 220/3/3 216/3/3 218/3/3
f 220/5/3 218/5/3 219/5/3
f 222/3/3 219/3/3 213/3/3
f 222/3/3 220/3/3 219/3/3
f 223/3/3 216/3/3 220/3/3
f 223/3/3 220/3/3 222/3/3
f 224/2/3 222/2/3 221/2/3
f 224/2/3 223/2/3 222/2/3
f 225/3/3 216/3/3 223/3/3
f 225/2/3 223/2/3 224/2/3
f 226/3/3 216/3/3 225/3/3
f 229/2/3 228/2/3 227/2/3
f 230/2/3 229/2/3 227/2/3
f 231/2/3 229/2/3 230/2/3
f 234/3/4 235/3/4 236/3/4
f 234/3/4 236/3/4 238/3/4
f 236/2/4 237/2/4 238/2/4
f 238/2/4 237/2/4 239/2/4
f 234/3/4 238/3/4 240/3/4
f 232/3/4 233/3/4 242/3/4
f 242/3/4 233/3/4 243/3/4
f 240/3/4 241/3/4 244/3/4
f 234/3/4 240/3/4 244/3/4
f 244/3/4 241/3/4 245/3/4
f 246/3/4 247/3/4 248/3/4
f 246/3/4 248/3/4 250/3/4
f 248/3/4 249/3/4 250/3/4
f 250/3/4 249/3/4 251/3/4
f 251/3/4 249/3/4 252/3/4
f 252/3/4 253/3/4 254/3/4
f 251/3/4 252/3/4 254/3/4
f 254/3/4 253/3/4 255/3/4
f 255/3/4 253/3/4 256/3/4
f 256/3/4 257/3/4 258/3/4
f 255/3/4 256/3/4 258/3/4
f 258/3/4 257/3/4 259/3/4
f 259/3/4 257/3/4 260/3/4
f 260/3/4 261/3/4 262/3/4
f 259/3/4 260/3/4 262/3/4
f 262/3/4 261/3/4 263/3/4
f 263/3/4 261/3/4 264/3/4
f 264/3/4 265/3/4 266/3/4
f 263/3/4 264/3/4 266/3/4
f 266/3/4 265/3/4 267/3/4
f 267/3/4 265/3/4 268/3/4
f 268/3/4 265/3/4 269/3/4
f 269/3/4 265/3/4 270/3/4
f 270/3/4 265/3/4 271/3/4
f 269/3/4 270/3/4 273/3/4
f 271/3/4 272/3/4 274/3/4
f 269/3/4 273/3/4 275/3/4
f 273/5/4 274/5/4 275/5/4
f 274/3/4 272/3/4 276/3/4
f 275/5/4 274/5/4 276/5/4
f 269/3/4 275/3/4 278/3/4
f 275/3/4 276/3/4 278/3/4
f 276/3/4 272/3/4 279/3/4
f 278/3/4 276/3/4 279/3/4
f 277/2/4 278/2/4 280/2/4
f 278/2/4 279/2/4 280/2/4
f 279/3/4 272/3/4 281/3/4
f 280/2/4 279/2/4 281/2/4
f 281/3/4 272/3/4 282/3/4
f 283/2/4 284/2/4 285/2/4
f 283/2/4 285/2/4 286/2/4
f 286/2/4 285/2/4 287/2/4
f 288/3/4 289/3/4 291/3/4
f 291/3/4 289/3/4 292/3/4
f 290/2/4 291/2/4 294/2/4
f 292/2/4 293/2/4 294/2/4
f 291/2/4 292/2/4 294/2/4
f 294/2/4 293/2/4 295/2/4
f 290/2/4 294/2/4 296/2/4
f 294/4/4 295/4/4 297/4/4
f 296/2/4 294/2/4 297/2/4
f 297/4/4 295/4/4 298/4/4
f 296/3/4 297/3/4 299/3/4
f 299/3/4 297/3/4 300/3/4
f 300/3/4 297/3/4 302/3/4
f 301/2/4 302/2/4 303/2/4
f 302/3/4 297/3/4 304/3/4
f 303/2/4 302/2/4 304/2/4
f 304/3/4 297/3/4 305/3/4
f 305/3/4 297/3/4 306/3/4
f 305/2/4 306/2/4 308/2/4
f 307/2/4 308/2/4 310/2/4
f 308/2/4 306/2/4 311/2/4
f 310/2/4 308/2/4 311/2/4
f 311/2/4 306/2/4 312/2/4
f 309/2/4 310/2/4 313/2/4
f 310/2/4 311/2/4 313/2/4
f 313/2/4 311/2/4 314/2/4
f 317/3/5 316/3/5 315/3/5
f 318/3/5 316/3/5 317/3/5
f 321/3/5 320/3/5 319/3/5
f 322/3/5 320/3/5 321/3/5
f 325/3/5 324/3/5 323/3/5
f 326/3/5 324/3/5 325/3/5
f 332/2/5 328/2/5 327/2/5
f 333/3/5 330/3/5 329/3/5
f 334/3/5 330/3/5 333/3/5
f 335/2/5 332/2/5 331/2/5
f 336/2/5 328/2/5 332/2/5
f 336/2/5 332/2/5 335/2/5
f 337/2/5 328/2/5 336/2/5
f 338/2/5 328/2/5 337/2/5
f 341/3/5 340/3/5 339/3/5
f 342/3/5 340/3/5 341/3/5
f 345/3/5 344/3/5 343/3/5
f 346/3/5 344/3/5 345/3/5
f 349/3/5 348/3/5 347/3/5
f 350/3/5 348/3/5 349/3/5
f 353/2/5 352/2/5 351/2/5
f 354/2/5 352/2/5 353/2/5
f 361/2/5 356/2/5 355/2/5
f 362/3/5 357/3/5 356/3/5
f 362/2/5 356/2/5 361/2/5
f 363/3/5 357/3/5 362/3/5
f 367/3/5 361/3/5 360/3/5
f 368/2/5 362/2/5 361/2/5
f 368/3/5 361/3/5 367/3/5
f 369/2/5 362/2/5 368/2/5
f 370/3/5 364/3/5 363/3/5
f 371/3/5 364/3/5 370/3/5
f 372/2/5 366/2/5 365/2/5
f 373/2/5 366/2/5 372/2/5
f 374/2/5 369/2/5 368/2/5
f 375/3/5 370/3/5 369/3/5
f 375/2/5 369/2/5 374/2/5
f 376/3/5 370/3/5 375/3/5
f 377/2/5 359/2/5 358/2/5
f 378/2/5 359/2/5 377/2/5
f 386/3/5 380/3/5 379/3/5
f 387/3/5 380/3/5 386/3/5
f 388/3/5 382/3/5 381/3/5
f 389/3/5 382/3/5 388/3/5
f 390/3/5 384/3/5 383/3/5
f 391/2/5 385/2/5 384/2/5
f 391/3/5 384/3/5 390/3/5
f 392/2/5 385/2/5 391/2/5
f 399/2/5 385/2/5 392/2/5
f 400/3/5 394/3/5 393/3/5
f 401/3/5 394/3/5 400/3/5
f 402/3/5 396/3/5 395/3/5
f 403/3/5 396/3/5 402/3/5
f 404/3/5 398/3/5 397/3/5
f 405/2/5 399/2/5 398/2/5
f 405/3/5 398/3/5 404/3/5
f 406/2/5 385/2/5 399/2/5
f 406/2/5 399/2/5 405/2/5
f 407/3/6 408/3/6 409/3/6
f 409/3/6 408/3/6 410/3/6
f 411/3/6 412/3/6 413/3/6
f 413/3/6 412/3/6 414/3/6
f 415/3/6 416/3/6 417/3/6
f 417/3/6 416/3/6 418/3/6
f 419/3/6 420/3/6 421/3/6
f 421/3/6 420/3/6 422/3/6
f 423/3/6 424/3/6 425/3/6
f 425/3/6 424/3/6 426/3/6
f 427/3/6 428/3/6 429/3/6
f 429/3/6 428/3/6 430/3/6
f 431/3/6 432/3/6 435/3/6
f 435/3/6 432/3/6 436/3/6
f 437/3/6 438/3/6 439/3/6
f 439/3/6 438/3/6 440/3/6
f 433/2/6 434/2/6 441/2/6
f 441/2/6 434/2/6 442/2/6
f 446/3/6 447/3/6 450/3/6
f 450/3/6 447/3/6 451/3/6
f 448/3/6 449/3/6 452/3/6
f 452/3/6 449/3/6 453/3/6
f 443/3/6 444/3/6 454/3/6
f 444/2/6 445/2/6 455/2/6
f 454/3/6 444/3/6 455/3/6
f 455/2/6 445/2/6 456/2/6
f 457/2/6 458/2/6 463/2/6
f 458/4/6 459/4/6 464/4/6
f 463/2/6 458/2/6 464/2/6
f 464/4/6 459/4/6 465/4/6
f 460/2/6 461/2/6 466/2/6
f 466/2/6 461/2/6 467/2/6
f 462/3/6 463/3/6 468/3/6
f 463/2/6 464/2/6 469/2/6
f 468/3/6 463/3/6 469/3/6
f 464/3/6 465/3/6 470/3/6
f 469/2/6 464/2/6 470/2/6
f 465/4/6 459/4/6 471/4/6
f 470/3/6 465/3/6 471/3/6
f 469/2/6 470/2/6 472/2/6
f 470/4/6 471/4/6 473/4/6
f 472/2/6 470/2/6 473/2/6
f 471/4/6 459/4/6 474/4/6
f 473/4/6 471/4/6 474/4/6
