# MagicaVoxel @ Ephtracy

# group
o 

# material
mtllib maxammo.mtl
usemtl palette

# normals
vn -1 0 0
vn 1 0 0
vn 0 0 1
vn 0 0 -1
vn 0 -1 0
vn 0 1 0

# texcoords
vt 0.0449219 0.5
vt 0.306641 0.5
vt 0.654297 0.5
vt 0.904297 0.5
vt 0.958984 0.5

# verts
v -1.2 0.9 0.2
v -1.2 0.9 -0.2
v -1.2 1.1 0.2
v -1.2 1.1 -0.2
v -1.1 1.1 0.2
v -1.1 1.1 -0.2
v -1.1 1.2 0.2
v -1.1 1.2 -0.2
v -1 1.2 0.2
v -1 1.2 -0.2
v -1 1.3 0.2
v -1 1.3 -0.2
v -0.9 0 0.5
v -0.9 0 -0.5
v -0.9 1.2 0.2
v -0.9 1.2 -0.2
v -0.9 1.3 0.5
v -0.9 1.3 0.2
v -0.9 1.3 -0.2
v -0.9 1.3 -0.5
v -0.9 1.4 0.2
v -0.9 1.4 -0.2
v -0.8 1.4 0.2
v -0.8 1.4 -0.2
v -0.8 1.5 0.2
v -0.8 1.5 -0.2
v -0.7 1.3 0.2
v -0.7 1.3 -0.2
v -0.7 1.4 0.2
v -0.7 1.4 -0.2
v -1.1 0.9 0.2
v -1.1 0.9 -0.2
v -1.1 1.1 0.2
v -1.1 1.1 -0.2
v -1 1.1 0.2
v -1 1.1 -0.2
v -1 1.2 0.2
v -1 1.2 -0.2
v -0.8 1.3 0.2
v -0.8 1.3 -0.2
v -0.8 1.4 0.2
v -0.8 1.4 -0.2
v -0.7 1.4 0.2
v -0.7 1.4 -0.2
v -0.7 1.5 0.2
v -0.7 1.5 -0.2
v -0.6 1.3 0.2
v -0.6 1.3 -0.2
v -0.6 1.4 0.2
v -0.6 1.4 -0.2
v 1.2 0 0.5
v 1.2 0 -0.5
v 1.2 1.3 0.5
v 1.2 1.3 -0.5
v -0.9 0 0.5
v -0.9 1.3 0.5
v 1.2 0 0.5
v 1.2 1.3 0.5
v -1.2 0.9 0.2
v -1.2 1.1 0.2
v -1.1 0.9 0.2
v -1.1 1.1 0.2
v -1.1 1.2 0.2
v -1 1.1 0.2
v -1 1.2 0.2
v -1 1.3 0.2
v -0.9 1.2 0.2
v -0.9 1.3 0.2
v -0.9 1.4 0.2
v -0.8 1.3 0.2
v -0.8 1.4 0.2
v -0.8 1.5 0.2
v -0.7 1.3 0.2
v -0.7 1.4 0.2
v -0.7 1.5 0.2
v -0.6 1.3 0.2
v -0.6 1.4 0.2
v -1.2 0.9 -0.2
v -1.2 1.1 -0.2
v -1.1 0.9 -0.2
v -1.1 1.1 -0.2
v -1.1 1.2 -0.2
v -1 1.1 -0.2
v -1 1.2 -0.2
v -1 1.3 -0.2
v -0.9 1.2 -0.2
v -0.9 1.3 -0.2
v -0.9 1.4 -0.2
v -0.8 1.3 -0.2
v -0.8 1.4 -0.2
v -0.8 1.5 -0.2
v -0.7 1.3 -0.2
v -0.7 1.4 -0.2
v -0.7 1.5 -0.2
v -0.6 1.3 -0.2
v -0.6 1.4 -0.2
v -0.9 0 -0.5
v -0.9 1.3 -0.5
v -0.8 0.3 -0.5
v -0.8 0.9 -0.5
v -0.7 0.4 -0.5
v -0.7 0.7 -0.5
v -0.7 0.8 -0.5
v -0.6 0.4 -0.5
v -0.6 0.7 -0.5
v -0.6 0.8 -0.5
v -0.5 0.3 -0.5
v -0.5 0.9 -0.5
v -0.4 0.3 -0.5
v -0.4 0.9 -0.5
v -0.3 0.3 -0.5
v -0.3 0.7 -0.5
v -0.2 0.6 -0.5
v -0.2 0.7 -0.5
v -0.2 0.9 -0.5
v -0.0999999 0.6 -0.5
v -0.0999999 0.7 -0.5
v -0.0999999 0.9 -0.5
v 1.19209e-07 0.3 -0.5
v 1.19209e-07 0.7 -0.5
v 0.1 0.3 -0.5
v 0.1 0.9 -0.5
v 0.2 0.3 -0.5
v 0.2 0.9 -0.5
v 0.3 0.3 -0.5
v 0.3 0.7 -0.5
v 0.4 0.6 -0.5
v 0.4 0.7 -0.5
v 0.4 0.9 -0.5
v 0.5 0.6 -0.5
v 0.5 0.7 -0.5
v 0.5 0.9 -0.5
v 0.6 0.3 -0.5
v 0.6 0.7 -0.5
v 0.7 0.3 -0.5
v 0.7 0.9 -0.5
v 0.8 0.3 -0.5
v 0.8 0.9 -0.5
v 0.9 0.3 -0.5
v 0.9 0.5 -0.5
v 0.9 0.6 -0.5
v 0.9 0.8 -0.5
v 1 0.3 -0.5
v 1 0.5 -0.5
v 1 0.6 -0.5
v 1 0.8 -0.5
v 1.1 0.3 -0.5
v 1.1 0.9 -0.5
v 1.2 0 -0.5
v 1.2 1.3 -0.5
v -0.9 0 0.5
v 1.2 0 0.5
v -0.9 0 -0.5
v 1.2 0 -0.5
v -1.2 0.9 0.2
v -1.1 0.9 0.2
v -1.2 0.9 -0.2
v -1.1 0.9 -0.2
v -1.1 1.1 0.2
v -1 1.1 0.2
v -1.1 1.1 -0.2
v -1 1.1 -0.2
v -1 1.2 0.2
v -0.9 1.2 0.2
v -1 1.2 -0.2
v -0.9 1.2 -0.2
v -0.8 1.4 0.2
v -0.7 1.4 0.2
v -0.8 1.4 -0.2
v -0.7 1.4 -0.2
v -1.2 1.1 0.2
v -1.1 1.1 0.2
v -1.2 1.1 -0.2
v -1.1 1.1 -0.2
v -1.1 1.2 0.2
v -1 1.2 0.2
v -1.1 1.2 -0.2
v -1 1.2 -0.2
v -0.9 1.3 0.5
v 1.2 1.3 0.5
v -1 1.3 0.2
v -0.9 1.3 0.2
v -0.8 1.3 0.2
v -0.7 1.3 0.2
v -0.6 1.3 0.2
v -1 1.3 -0.2
v -0.9 1.3 -0.2
v -0.8 1.3 -0.2
v -0.7 1.3 -0.2
v -0.6 1.3 -0.2
v -0.9 1.3 -0.5
v 1.2 1.3 -0.5
v -0.9 1.4 0.2
v -0.8 1.4 0.2
v -0.7 1.4 0.2
v -0.6 1.4 0.2
v -0.9 1.4 -0.2
v -0.8 1.4 -0.2
v -0.7 1.4 -0.2
v -0.6 1.4 -0.2
v -0.8 1.5 0.2
v -0.7 1.5 0.2
v -0.8 1.5 -0.2
v -0.7 1.5 -0.2

# faces
f 3/1/1 2/1/1 1/1/1
f 4/1/1 2/1/1 3/1/1
f 7/1/1 6/1/1 5/1/1
f 8/1/1 6/1/1 7/1/1
f 11/1/1 10/1/1 9/1/1
f 12/1/1 10/1/1 11/1/1
f 15/3/1 14/3/1 13/3/1
f 16/3/1 14/3/1 15/3/1
f 17/3/1 15/3/1 13/3/1
f 18/3/1 15/3/1 17/3/1
f 19/3/1 14/3/1 16/3/1
f 20/3/1 14/3/1 19/3/1
f 21/1/1 19/1/1 18/1/1
f 22/1/1 19/1/1 21/1/1
f 25/1/1 24/1/1 23/1/1
f 26/1/1 24/1/1 25/1/1
f 29/1/1 28/1/1 27/1/1
f 30/1/1 28/1/1 29/1/1
f 31/1/2 32/1/2 33/1/2
f 33/1/2 32/1/2 34/1/2
f 35/1/2 36/1/2 37/1/2
f 37/1/2 36/1/2 38/1/2
f 39/1/2 40/1/2 41/1/2
f 41/1/2 40/1/2 42/1/2
f 43/1/2 44/1/2 45/1/2
f 45/1/2 44/1/2 46/1/2
f 47/1/2 48/1/2 49/1/2
f 49/1/2 48/1/2 50/1/2
f 51/3/2 52/3/2 53/3/2
f 53/3/2 52/3/2 54/3/2
f 57/3/3 56/3/3 55/3/3
f 58/3/3 56/3/3 57/3/3
f 61/1/3 60/1/3 59/1/3
f 62/1/3 60/1/3 61/1/3
f 64/1/3 63/1/3 62/1/3
f 65/1/3 63/1/3 64/1/3
f 67/1/3 66/1/3 65/1/3
f 68/1/3 66/1/3 67/1/3
f 70/1/3 69/1/3 68/1/3
f 71/1/3 69/1/3 70/1/3
f 74/1/3 72/1/3 71/1/3
f 75/1/3 72/1/3 74/1/3
f 76/1/3 74/1/3 73/1/3
f 77/1/3 74/1/3 76/1/3
f 78/1/4 79/1/4 80/1/4
f 80/1/4 79/1/4 81/1/4
f 81/1/4 82/1/4 83/1/4
f 83/1/4 82/1/4 84/1/4
f 84/1/4 85/1/4 86/1/4
f 86/1/4 85/1/4 87/1/4
f 87/1/4 88/1/4 89/1/4
f 89/1/4 88/1/4 90/1/4
f 90/1/4 91/1/4 93/1/4
f 93/1/4 91/1/4 94/1/4
f 92/1/4 93/1/4 95/1/4
f 95/1/4 93/1/4 96/1/4
f 97/3/4 98/3/4 99/3/4
f 99/3/4 98/3/4 100/3/4
f 99/5/4 100/5/4 101/5/4
f 101/5/4 100/5/4 102/5/4
f 102/5/4 100/5/4 103/5/4
f 99/5/4 101/5/4 104/5/4
f 101/3/4 102/3/4 104/3/4
f 102/4/4 103/4/4 105/4/4
f 104/3/4 102/3/4 105/3/4
f 103/5/4 100/5/4 106/5/4
f 105/4/4 103/4/4 106/4/4
f 97/3/4 99/3/4 107/3/4
f 104/5/4 105/5/4 107/5/4
f 105/5/4 106/5/4 107/5/4
f 99/5/4 104/5/4 107/5/4
f 106/5/4 100/5/4 108/5/4
f 107/5/4 106/5/4 108/5/4
f 100/3/4 98/3/4 108/3/4
f 97/3/4 107/3/4 109/3/4
f 107/3/4 108/3/4 109/3/4
f 108/3/4 98/3/4 110/3/4
f 109/3/4 108/3/4 110/3/4
f 97/3/4 109/3/4 111/3/4
f 109/5/4 110/5/4 111/5/4
f 111/5/4 110/5/4 112/5/4
f 111/3/4 112/3/4 113/3/4
f 112/5/4 110/5/4 114/5/4
f 113/3/4 112/3/4 114/3/4
f 110/3/4 98/3/4 115/3/4
f 114/5/4 110/5/4 115/5/4
f 113/5/4 114/5/4 116/5/4
f 111/3/4 113/3/4 116/3/4
f 114/3/4 115/3/4 117/3/4
f 116/5/4 114/5/4 117/5/4
f 115/3/4 98/3/4 118/3/4
f 117/3/4 115/3/4 118/3/4
f 116/3/4 117/3/4 119/3/4
f 97/3/4 111/3/4 119/3/4
f 111/3/4 116/3/4 119/3/4
f 117/5/4 118/5/4 120/5/4
f 119/3/4 117/3/4 120/3/4
f 97/3/4 119/3/4 121/3/4
f 119/5/4 120/5/4 121/5/4
f 118/3/4 98/3/4 122/3/4
f 121/5/4 120/5/4 122/5/4
f 120/5/4 118/5/4 122/5/4
f 97/3/4 121/3/4 123/3/4
f 121/3/4 122/3/4 123/3/4
f 122/3/4 98/3/4 124/3/4
f 123/3/4 122/3/4 124/3/4
f 97/3/4 123/3/4 125/3/4
f 123/5/4 124/5/4 125/5/4
f 125/5/4 124/5/4 126/5/4
f 125/3/4 126/3/4 127/3/4
f 126/5/4 124/5/4 128/5/4
f 127/3/4 126/3/4 128/3/4
f 124/3/4 98/3/4 129/3/4
f 128/5/4 124/5/4 129/5/4
f 127/5/4 128/5/4 130/5/4
f 125/3/4 127/3/4 130/3/4
f 128/3/4 129/3/4 131/3/4
f 130/5/4 128/5/4 131/5/4
f 129/3/4 98/3/4 132/3/4
f 131/3/4 129/3/4 132/3/4
f 130/3/4 131/3/4 133/3/4
f 97/3/4 125/3/4 133/3/4
f 125/3/4 130/3/4 133/3/4
f 131/5/4 132/5/4 134/5/4
f 133/3/4 131/3/4 134/3/4
f 97/3/4 133/3/4 135/3/4
f 133/5/4 134/5/4 135/5/4
f 132/3/4 98/3/4 136/3/4
f 135/5/4 134/5/4 136/5/4
f 134/5/4 132/5/4 136/5/4
f 97/3/4 135/3/4 137/3/4
f 135/3/4 136/3/4 137/3/4
f 136/3/4 98/3/4 138/3/4
f 137/3/4 136/3/4 138/3/4
f 97/3/4 137/3/4 139/3/4
f 137/5/4 138/5/4 139/5/4
f 139/5/4 138/5/4 140/5/4
f 140/5/4 138/5/4 141/5/4
f 141/5/4 138/5/4 142/5/4
f 97/3/4 139/3/4 143/3/4
f 139/3/4 140/3/4 143/3/4
f 140/5/4 141/5/4 144/5/4
f 143/3/4 140/3/4 144/3/4
f 141/3/4 142/3/4 145/3/4
f 144/5/4 141/5/4 145/5/4
f 142/5/4 138/5/4 146/5/4
f 145/3/4 142/3/4 146/3/4
f 144/5/4 145/5/4 147/5/4
f 143/5/4 144/5/4 147/5/4
f 145/5/4 146/5/4 147/5/4
f 97/3/4 143/3/4 147/3/4
f 138/3/4 98/3/4 148/3/4
f 147/5/4 146/5/4 148/5/4
f 146/5/4 138/5/4 148/5/4
f 97/3/4 147/3/4 149/3/4
f 147/3/4 148/3/4 149/3/4
f 148/3/4 98/3/4 150/3/4
f 149/3/4 148/3/4 150/3/4
f 153/3/5 152/3/5 151/3/5
f 154/3/5 152/3/5 153/3/5
f 157/1/5 156/1/5 155/1/5
f 158/1/5 156/1/5 157/1/5
f 161/1/5 160/1/5 159/1/5
f 162/1/5 160/1/5 161/1/5
f 165/1/5 164/1/5 163/1/5
f 166/1/5 164/1/5 165/1/5
f 169/1/5 168/1/5 167/1/5
f 170/1/5 168/1/5 169/1/5
f 171/1/6 172/1/6 173/1/6
f 173/1/6 172/1/6 174/1/6
f 175/1/6 176/1/6 177/1/6
f 177/1/6 176/1/6 178/1/6
f 179/3/6 180/3/6 182/3/6
f 182/3/6 180/3/6 183/3/6
f 183/3/6 180/3/6 184/3/6
f 184/3/6 180/3/6 185/3/6
f 181/1/6 182/1/6 186/1/6
f 186/1/6 182/1/6 187/1/6
f 183/3/6 184/3/6 188/3/6
f 188/3/6 184/3/6 189/3/6
f 185/3/6 180/3/6 190/3/6
f 188/3/6 189/3/6 191/3/6
f 189/3/6 190/3/6 191/3/6
f 187/3/6 188/3/6 191/3/6
f 190/3/6 180/3/6 192/3/6
f 191/3/6 190/3/6 192/3/6
f 193/1/6 194/1/6 197/1/6
f 197/1/6 194/1/6 198/1/6
f 195/1/6 196/1/6 199/1/6
f 199/1/6 196/1/6 200/1/6
f 201/1/6 202/1/6 203/1/6
f 203/1/6 202/1/6 204/1/6
